<?xml version="1.0" encoding="utf-8"?><svg xmlns="http://www.w3.org/2000/svg" xmlns:xlink="http://www.w3.org/1999/xlink"><symbol viewBox="0 0 18 18" id="arrow-right" xmlns="http://www.w3.org/2000/svg">
    <path d="M3.75 9H14.25" stroke-width="1.125" stroke-linecap="round" stroke-linejoin="round"/>
    <path d="M9.75 13.5L14.25 9" stroke-width="1.125" stroke-linecap="round" stroke-linejoin="round"/>
    <path d="M9.75 4.5L14.25 9" stroke-width="1.125" stroke-linecap="round" stroke-linejoin="round"/>
</symbol><symbol viewBox="0 0 24 24" id="cart" xmlns="http://www.w3.org/2000/svg">
    <path d="M9 6L9 7C9 8.65685 10.3431 10 12 10C13.6569 10 15 8.65685 15 7V6" stroke-width="1.5" stroke-linecap="round" stroke-linejoin="round"/>
    <path d="M15.6116 3H8.3886C6.43325 3 4.76449 4.41365 4.44303 6.3424L2.77636 16.3424C2.37001 18.7805 4.25018 21 6.72194 21H17.2783C19.75 21 21.6302 18.7805 21.2238 16.3424L19.5572 6.3424C19.2357 4.41365 17.5669 3 15.6116 3Z" stroke-width="1.5" stroke-linejoin="round"/>
</symbol><symbol viewBox="0 0 19 18" id="chevron-down" xmlns="http://www.w3.org/2000/svg">
    <path d="M5.20435 6.75L9.70435 11.25L14.2043 6.75" stroke-width="1.125" stroke-linecap="round" stroke-linejoin="round"/>
</symbol><symbol viewBox="0 0 20 20" id="close" xmlns="http://www.w3.org/2000/svg">
    <path fill-rule="evenodd" clip-rule="evenodd" d="M15.4419 5.44194C15.686 5.19786 15.686 4.80214 15.4419 4.55806C15.1979 4.31398 14.8021 4.31398 14.5581 4.55806L10 9.11612L5.44194 4.55806C5.19786 4.31398 4.80214 4.31398 4.55806 4.55806C4.31398 4.80214 4.31398 5.19786 4.55806 5.44194L9.11612 10L4.55806 14.5581C4.31398 14.8021 4.31398 15.1979 4.55806 15.4419C4.80214 15.686 5.19786 15.686 5.44194 15.4419L10 10.8839L14.5581 15.4419C14.8021 15.686 15.1979 15.686 15.4419 15.4419C15.686 15.1979 15.686 14.8021 15.4419 14.5581L10.8839 10L15.4419 5.44194Z"/>
</symbol><symbol viewBox="0 0 24 24" id="email" xmlns="http://www.w3.org/2000/svg">
    <path fill-rule="evenodd" clip-rule="evenodd" d="M4.07675 6.53075C4.23299 6.01858 4.70925 5.646 5.27254 5.646H19.2725C19.8358 5.646 20.3121 6.01858 20.4683 6.53075L12.2725 11.9946L4.07675 6.53075ZM2.52257 6.88226C2.52244 6.89026 2.52242 6.89826 2.52254 6.90625V16.896C2.52254 18.4148 3.75376 19.646 5.27254 19.646H19.2725C20.7913 19.646 22.0225 18.4148 22.0225 16.896V6.90622M20.5225 8.29738V16.896C20.5225 17.5864 19.9629 18.146 19.2725 18.146H5.27254C4.58218 18.146 4.02254 17.5864 4.02254 16.896V8.29738L11.8565 13.52C12.1084 13.688 12.4366 13.688 12.6886 13.52L20.5225 8.29738ZM22.0225 6.88229C22.0151 5.36981 20.7868 4.146 19.2725 4.146H5.27254C3.75834 4.146 2.52997 5.3698 2.52257 6.88226"/>
</symbol><symbol viewBox="0 0 24 24" id="facebook" xmlns="http://www.w3.org/2000/svg">
    <path d="M18 3H15C12.2386 3 10 5.23858 10 8V10H6V14H10V21H14V14H18V10H14V8C14 7.44772 14.4477 7 15 7H18V3Z" stroke-width="1.5" stroke-linecap="round" stroke-linejoin="round"/>
</symbol><symbol viewBox="0 0 48 48" id="finance" xmlns="http://www.w3.org/2000/svg">
    <rect x="4" y="8" width="40" height="32" rx="4" stroke-width="2.5"/>
    <circle cx="4" cy="4" r="4" transform="matrix(1 0 0 -1 20 28)" stroke-width="2.5"/>
    <circle cx="2" cy="2" r="2" transform="matrix(1 0 0 -1 34 26)"/>
    <circle cx="2" cy="2" r="2" transform="matrix(1 0 0 -1 10 26)"/>
</symbol><symbol viewBox="0 0 20 16" id="heart" xmlns="http://www.w3.org/2000/svg">
    <path fill-rule="evenodd" clip-rule="evenodd" d="M10.577 3.76422C10.2546 4.07365 9.74548 4.07365 9.42304 3.76422L8.84604 3.2105C8.17068 2.56239 7.25832 2.16667 6.25004 2.16667C4.17897 2.16667 2.50004 3.8456 2.50004 5.91667C2.50004 7.90219 3.57486 9.54171 5.1265 10.8888C6.67947 12.237 8.53621 13.1312 9.64558 13.5876C9.87754 13.683 10.1225 13.683 10.3545 13.5876C11.4639 13.1312 13.3206 12.237 14.8736 10.8888C16.4252 9.54171 17.5 7.90218 17.5 5.91667C17.5 3.8456 15.8211 2.16667 13.75 2.16667C12.7418 2.16667 11.8294 2.56239 11.154 3.2105L10.577 3.76422ZM10 2.00798C9.0268 1.074 7.70545 0.5 6.25004 0.5C3.2585 0.5 0.833374 2.92512 0.833374 5.91667C0.833374 11.2235 6.64199 14.1542 9.01153 15.1289C9.64968 15.3914 10.3504 15.3914 10.9885 15.1289C13.3581 14.1542 19.1667 11.2235 19.1667 5.91667C19.1667 2.92512 16.7416 0.5 13.75 0.5C12.2946 0.5 10.9733 1.074 10 2.00798Z"/>
</symbol><symbol viewBox="0 0 24 24" id="heart-line" xmlns="http://www.w3.org/2000/svg">
    <path d="M12.001 4.52853C14.35 2.42 17.98 2.49 20.2426 4.75736C22.5053 7.02472 22.583 10.637 20.4786 12.993L11.9999 21.485L3.52138 12.993C1.41705 10.637 1.49571 7.01901 3.75736 4.75736C6.02157 2.49315 9.64519 2.41687 12.001 4.52853ZM18.827 6.1701C17.3279 4.66794 14.9076 4.60701 13.337 6.01687L12.0019 7.21524L10.6661 6.01781C9.09098 4.60597 6.67506 4.66808 5.17157 6.17157C3.68183 7.66131 3.60704 10.0473 4.97993 11.6232L11.9999 18.6543L19.0201 11.6232C20.3935 10.0467 20.319 7.66525 18.827 6.1701Z"/>
</symbol><symbol viewBox="0 0 24 24" id="id-card-line" xmlns="http://www.w3.org/2000/svg">
    <path d="M3 6H21V18H3V6ZM2 4C1.44772 4 1 4.44772 1 5V19C1 19.5523 1.44772 20 2 20H22C22.5523 20 23 19.5523 23 19V5C23 4.44772 22.5523 4 22 4H2ZM13 8H19V10H13V8ZM18 12H13V14H18V12ZM10.5 10C10.5 11.3807 9.38071 12.5 8 12.5C6.61929 12.5 5.5 11.3807 5.5 10C5.5 8.61929 6.61929 7.5 8 7.5C9.38071 7.5 10.5 8.61929 10.5 10ZM8 13.5C6.067 13.5 4.5 15.067 4.5 17H11.5C11.5 15.067 9.933 13.5 8 13.5Z"/>
</symbol><symbol viewBox="0 0 24 24" id="instagram" xmlns="http://www.w3.org/2000/svg">
    <rect x="2" y="2" width="20" height="20" rx="4" stroke-width="1.5"/>
    <circle cx="18" cy="6" r="1"/>
    <circle cx="12" cy="12" r="5" stroke-width="1.5"/>
</symbol><symbol viewBox="0 0 36 44" id="lock" xmlns="http://www.w3.org/2000/svg">
    <path d="M26 14H10M26 14C30.4183 14 34 17.5817 34 22V34C34 38.4183 30.4183 42 26 42H10C5.58172 42 2 38.4183 2 34V22C2 17.5817 5.58172 14 10 14M26 14V10C26 5.58172 22.4183 2 18 2C13.5817 2 10 5.58172 10 10V14M18 30V26" stroke-width="2.5" stroke-linecap="round"/>
</symbol><symbol viewBox="0 0 40 40" id="phone" xmlns="http://www.w3.org/2000/svg">
    <path d="M38 34V30.7081C38 29.0725 37.0042 27.6017 35.4856 26.9942L31.4173 25.3669C29.4857 24.5943 27.2844 25.4312 26.354 27.292L26 28C26 28 21 27 17 23C13 19 12 14 12 14L12.708 13.646C14.5688 12.7156 15.4057 10.5143 14.6331 8.58271L13.0058 4.51444C12.3983 2.99581 10.9275 2 9.29187 2H6C3.79086 2 2 3.79086 2 6C2 23.6731 16.3269 38 34 38C36.2091 38 38 36.2091 38 34Z" stroke-width="2.5" stroke-linejoin="round"/>
</symbol><symbol viewBox="0 0 24 24" id="search" xmlns="http://www.w3.org/2000/svg">
    <path d="M18.5 18.5L22 22M21 11.5C21 6.25329 16.7467 2 11.5 2C6.25329 2 2 6.25329 2 11.5C2 16.7467 6.25329 21 11.5 21C16.7467 21 21 16.7467 21 11.5Z" stroke-width="1.5" stroke-linecap="round" stroke-linejoin="round"/>
</symbol><symbol viewBox="0 0 24 24" id="search-line" xmlns="http://www.w3.org/2000/svg">
    <path d="M18.031 16.6168L22.3137 20.8995L20.8995 22.3137L16.6168 18.031C15.0769 19.263 13.124 20 11 20C6.032 20 2 15.968 2 11C2 6.032 6.032 2 11 2C15.968 2 20 6.032 20 11C20 13.124 19.263 15.0769 18.031 16.6168ZM16.0247 15.8748C17.2475 14.6146 18 12.8956 18 11C18 7.1325 14.8675 4 11 4C7.1325 4 4 7.1325 4 11C4 14.8675 7.1325 18 11 18C12.8956 18 14.6146 17.2475 15.8748 16.0247L16.0247 15.8748Z"/>
</symbol><symbol viewBox="0 0 48 48" id="shipping" xmlns="http://www.w3.org/2000/svg">
    <path d="M28 38V14M28 38H32M28 38H18M28 14C28 9.58172 24.4183 6 20 6H12C7.58172 6 4 9.58172 4 14V30C4 33.7304 6.55333 36.8645 10.0077 37.7499M28 14H34.4182C35.4344 14 36.4126 14.3868 37.154 15.0819L42.7358 20.3148C43.5424 21.071 44 22.1273 44 23.2329V34C44 36.2091 42.2091 38 40 38M40 38C40 40.2091 38.2091 42 36 42C33.7909 42 32 40.2091 32 38M40 38C40 35.7909 38.2091 34 36 34C33.7909 34 32 35.7909 32 38M18 38C18 40.2091 16.2091 42 14 42C11.7909 42 10 40.2091 10 38C10 37.916 10.0026 37.8326 10.0077 37.7499M18 38C18 35.7909 16.2091 34 14 34C11.8748 34 10.1368 35.6573 10.0077 37.7499" stroke-width="2.5"/>
    <path d="M20 16H16" stroke-width="2.5" stroke-linecap="round" stroke-linejoin="round"/>
    <path d="M20 24H12" stroke-width="2.5" stroke-linecap="round" stroke-linejoin="round"/>
</symbol><symbol viewBox="0 0 14 14" id="star" xmlns="http://www.w3.org/2000/svg">
    <path d="M7 1.30198L8.53708 4.99757C8.68109 5.34381 9.0067 5.58038 9.38049 5.61034L13.3702 5.9302L10.3305 8.53405C10.0457 8.778 9.9213 9.16078 10.0083 9.52554L10.937 13.4188L7.52125 11.3325C7.20124 11.137 6.79876 11.137 6.47875 11.3325L3.063 13.4188L3.99169 9.52554C4.0787 9.16078 3.95433 8.77801 3.66954 8.53405L0.629804 5.9302L4.61951 5.61034C4.9933 5.58038 5.31891 5.34381 5.46292 4.99757L7 1.30198Z"/>
</symbol><symbol viewBox="0 0 14 14" id="star-fill" xmlns="http://www.w3.org/2000/svg">
    <path d="M6.53834 1.10997C6.70914 0.699319 7.29086 0.699318 7.46166 1.10996L8.99874 4.80556C9.07075 4.97868 9.23355 5.09696 9.42045 5.11194L13.4102 5.4318C13.8535 5.46734 14.0332 6.02059 13.6955 6.30993L10.6557 8.91378C10.5133 9.03576 10.4512 9.22715 10.4947 9.40952L11.4234 13.3028C11.5265 13.7354 11.0559 14.0773 10.6764 13.8455L7.26063 11.7592C7.10062 11.6615 6.89938 11.6615 6.73937 11.7592L3.32363 13.8455C2.94408 14.0773 2.47345 13.7354 2.57665 13.3028L3.50534 9.40952C3.54884 9.22715 3.48665 9.03576 3.34426 8.91378L0.304527 6.30993C-0.0332418 6.02059 0.14652 5.46734 0.589847 5.4318L4.57955 5.11194C4.76645 5.09696 4.92925 4.97868 5.00126 4.80556L6.53834 1.10997Z"/>
</symbol><symbol viewBox="0 0 24 24" id="ticket-percent" xmlns="http://www.w3.org/2000/svg">
    <path d="M21.0181 14.8356L20.7727 15.5444H20.7727L21.0181 14.8356ZM21.0181 9.16437L21.2635 9.8731V9.8731L21.0181 9.16437ZM2.98189 14.8356L3.22727 15.5444H3.22727L2.98189 14.8356ZM2.98189 9.16437L2.73652 9.8731L2.73652 9.8731L2.98189 9.16437ZM15.5303 9.53033C15.8232 9.23744 15.8232 8.76256 15.5303 8.46967C15.2374 8.17678 14.7626 8.17678 14.4697 8.46967L15.5303 9.53033ZM8.46967 14.4697C8.17678 14.7626 8.17678 15.2374 8.46967 15.5303C8.76256 15.8232 9.23744 15.8232 9.53033 15.5303L8.46967 14.4697ZM6 20.25C4.20507 20.25 2.75 18.7949 2.75 17H1.25C1.25 19.6234 3.37665 21.75 6 21.75V20.25ZM21.25 17C21.25 18.7949 19.7949 20.25 18 20.25V21.75C20.6234 21.75 22.75 19.6234 22.75 17H21.25ZM18 3.75C19.7949 3.75 21.25 5.20507 21.25 7H22.75C22.75 4.37665 20.6234 2.25 18 2.25V3.75ZM6 2.25C3.37665 2.25 1.25 4.37665 1.25 7H2.75C2.75 5.20507 4.20507 3.75 6 3.75V2.25ZM21.2635 14.1269C20.3815 13.8216 19.75 12.9836 19.75 12H18.25C18.25 13.6424 19.3054 15.0363 20.7727 15.5444L21.2635 14.1269ZM19.75 12C19.75 11.0164 20.3815 10.1784 21.2635 9.8731L20.7727 8.45565C19.3054 8.96367 18.25 10.3576 18.25 12H19.75ZM4.25 12C4.25 12.9836 3.61845 13.8216 2.73652 14.1269L3.22727 15.5444C4.69461 15.0363 5.75 13.6424 5.75 12H4.25ZM2.73652 9.8731C3.61845 10.1784 4.25 11.0164 4.25 12H5.75C5.75 10.3576 4.69462 8.96367 3.22727 8.45565L2.73652 9.8731ZM22.75 8V7H21.25V8H22.75ZM21.25 16V17H22.75V16H21.25ZM1.25 16V17H2.75V16H1.25ZM2.75 8V7H1.25V8H2.75ZM18 20.25H6V21.75H18V20.25ZM18 2.25H6V3.75H18V2.25ZM2.73652 14.1269C2.05785 14.3619 1.25 14.9975 1.25 16H2.75C2.75 15.9441 2.77081 15.8708 2.85172 15.7813C2.9366 15.6873 3.06974 15.5989 3.22727 15.5444L2.73652 14.1269ZM21.2635 9.8731C21.9422 9.63813 22.75 9.00246 22.75 8H21.25C21.25 8.05587 21.2292 8.12917 21.1483 8.21871C21.0634 8.31265 20.9303 8.40111 20.7727 8.45565L21.2635 9.8731ZM3.22727 8.45565C3.06974 8.40111 2.9366 8.31265 2.85172 8.21871C2.77081 8.12917 2.75 8.05587 2.75 8H1.25C1.25 9.00246 2.05785 9.63813 2.73652 9.8731L3.22727 8.45565ZM20.7727 15.5444C20.9303 15.5989 21.0634 15.6873 21.1483 15.7813C21.2292 15.8708 21.25 15.9441 21.25 16H22.75C22.75 14.9975 21.9422 14.3619 21.2635 14.1269L20.7727 15.5444ZM9.25 9C9.25 9.13807 9.13807 9.25 9 9.25V10.75C9.9665 10.75 10.75 9.9665 10.75 9H9.25ZM9 9.25C8.86193 9.25 8.75 9.13807 8.75 9H7.25C7.25 9.9665 8.0335 10.75 9 10.75V9.25ZM8.75 9C8.75 8.86193 8.86193 8.75 9 8.75V7.25C8.0335 7.25 7.25 8.0335 7.25 9H8.75ZM9 8.75C9.13807 8.75 9.25 8.86193 9.25 9H10.75C10.75 8.0335 9.9665 7.25 9 7.25V8.75ZM15.25 15C15.25 15.1381 15.1381 15.25 15 15.25V16.75C15.9665 16.75 16.75 15.9665 16.75 15H15.25ZM15 15.25C14.8619 15.25 14.75 15.1381 14.75 15H13.25C13.25 15.9665 14.0335 16.75 15 16.75V15.25ZM14.75 15C14.75 14.8619 14.8619 14.75 15 14.75V13.25C14.0335 13.25 13.25 14.0335 13.25 15H14.75ZM15 14.75C15.1381 14.75 15.25 14.8619 15.25 15H16.75C16.75 14.0335 15.9665 13.25 15 13.25V14.75ZM14.4697 8.46967L8.46967 14.4697L9.53033 15.5303L15.5303 9.53033L14.4697 8.46967Z"/>
</symbol><symbol viewBox="0 0 22 22" id="user" xmlns="http://www.w3.org/2000/svg">
    <path d="M17.5588 18.5488C16.5654 15.8918 14.0036 14 11 14C7.99638 14 5.4346 15.8918 4.44117 18.5488M17.5588 18.5488C19.6672 16.7154 21 14.0134 21 11C21 5.47715 16.5228 1 11 1C5.47715 1 1 5.47715 1 11C1 14.0134 2.33285 16.7154 4.44117 18.5488M17.5588 18.5488C15.8031 20.0756 13.5095 21 11 21C8.49052 21 6.19694 20.0756 4.44117 18.5488M14 8C14 9.65685 12.6569 11 11 11C9.34315 11 8 9.65685 8 8C8 6.34315 9.34315 5 11 5C12.6569 5 14 6.34315 14 8Z" stroke-width="1.5" stroke-linejoin="round"/>
</symbol><symbol viewBox="0 0 24 24" id="user-star-line" xmlns="http://www.w3.org/2000/svg">
    <path d="M12 14V16C8.68629 16 6 18.6863 6 22H4C4 17.5817 7.58172 14 12 14ZM12 13C8.685 13 6 10.315 6 7C6 3.685 8.685 1 12 1C15.315 1 18 3.685 18 7C18 10.315 15.315 13 12 13ZM12 11C14.21 11 16 9.21 16 7C16 4.79 14.21 3 12 3C9.79 3 8 4.79 8 7C8 9.21 9.79 11 12 11ZM18 21.5L15.0611 23.0451L15.6224 19.7725L13.2447 17.4549L16.5305 16.9775L18 14L19.4695 16.9775L22.7553 17.4549L20.3776 19.7725L20.9389 23.0451L18 21.5Z"/>
</symbol><symbol id="website" enable-background="new 0 0 497 497" viewBox="0 0 497 497" xmlns="http://www.w3.org/2000/svg">
    <g>
        <path d="m497 128.5v312c0 11.046-8.954 20-20 20h-457c-11.046 0-20-8.954-20-20v-312z"/>
        <g>
            <path d="m290.498 294.5c0-23.196-18.804-42-42-42-7.031 0-13.659 1.728-19.482 4.782-13.386 7.021-19.327 21.053-19.327 37.218 0 23.196 15.613 36.457 38.809 36.457 16.214 0 30.282-3.645 37.282-17.099 3.014-5.792 4.718-12.376 4.718-19.358z"/>
            <path d="m286.468 312.47c-6.73 14.21-21.2 24.03-37.97 24.03-23.2 0-42-18.8-42-42 0-16.77 9.82-31.24 24.03-37.97-2.59 5.45-4.03 11.54-4.03 17.97 0 23.2 18.8 42 42 42 6.43 0 12.52-1.44 17.97-4.03z"/>
        </g>
        <g>
            <path d="m429.496 294.5c0-23.196-18.804-42-42-42-7.031 0-13.659 1.728-19.482 4.782-13.386 7.021-19.327 21.053-19.327 37.218 0 23.196 15.613 36.457 38.809 36.457 16.214 0 30.282-3.645 37.282-17.099 3.014-5.792 4.718-12.376 4.718-19.358z"/>
            <path d="m425.466 312.47c-6.73 14.21-21.2 24.03-37.97 24.03-23.2 0-42-18.8-42-42 0-16.77 9.82-31.24 24.03-37.97-2.59 5.45-4.03 11.54-4.03 17.97 0 23.2 18.8 42 42 42 6.43 0 12.52-1.44 17.97-4.03z"/>
        </g>
        <path d="m497 148.5v-20l-276.011-12.798-220.989 12.798v20 292c0 11.046 8.954 20 20 20h15c-8.28 0-15-6.72-15-15v-291c0-3.314 2.686-6 6-6z"/>
        <g>
            <path d="m497 56.5v72.5h-497v-72.5c0-11.046 8.954-20 20-20h457c11.046 0 20 8.954 20 20z"/>
            <g>
                <path d="m227.758 108.5c-8.255 0-14.947-6.716-14.947-15s6.692-15 14.947-15h208.315c8.255 0 14.947 6.716 14.947 15s-6.692 15-14.947 15z"/>
                <ellipse cx="160.869" cy="93.5" rx="14.947" ry="15"/>
                <path d="m171.361 104.184 12.874-12.869-13.139 1.179z"/>
                <path d="m150.592 82.608 12.562-12.516-2.693 10.408z"/>
                <ellipse cx="98.034" cy="93.5" rx="14.947" ry="15"/>
                <path d="m108.553 104.157 12.382-12.499-12.674.836z"/>
                <path d="m87.757 82.608 12.371-12.459-2.502 10.351z"/>
                <ellipse cx="32.947" cy="93.5" rx="14.947" ry="15"/>
                <path d="m43.769 103.846 12.721-13.186-13.139 1.381z"/>
                <path d="m22.67 82.608 11.622-12.038-1.753 9.93z"/>
            </g>
            <ellipse cx="173.849" cy="80.5" rx="14.947" ry="15"/>
            <path d="m217.514 82.577 12.971-12.991-3.025 14.276z"/>
            <path d="m446.83 103.915 13.149-13.179-10.185 3.381z"/>
            <ellipse cx="110.946" cy="80.5" rx="14.947" ry="15"/>
            <ellipse cx="45.495" cy="80.5" rx="14.947" ry="15"/>
            <path d="m240.737 95.5c-8.255 0-14.947-6.716-14.947-15s6.692-15 14.947-15h208.315c8.255 0 14.947 6.716 14.947 15s-6.692 15-14.947 15z"/>
        </g>
        <path d="m135.893 215 226.628 2c5.523 0 10-4.477 10-10l3.479-7v-30c0-5.523-4.477-10-10-10h-224l-6.107 5c-5.523 0-10 4.477-10 10v30c0 5.523 4.477 10 10 10z"/>
        <path d="m376 200v10c0 5.523-4.477 10-10 10h-234c-5.523 0-10-4.477-10-10v-40c0-5.523 4.477-10 10-10h10v33c0 3.866 3.134 7 7 7z"/>
        <g>
            <path d="m151.5 294.5c0-23.196-18.804-42-42-42-7.031 0-13.659 1.728-19.482 4.782-13.386 7.021-19.327 21.053-19.327 37.218 0 23.196 15.613 36.457 38.809 36.457 16.214 0 30.282-3.645 37.282-17.099 3.014-5.792 4.718-12.376 4.718-19.358z"/>
            <path d="m147.47 312.47c-6.73 14.21-21.2 24.03-37.97 24.03-23.2 0-42-18.8-42-42 0-16.77 9.82-31.24 24.03-37.97-2.59 5.45-4.03 11.54-4.03 17.97 0 23.2 18.8 42 42 42 6.43 0 12.52-1.44 17.97-4.03z"/>
        </g>
        <g>
            <g>
                <path d="m149.5 374h-70c-4.142 0-7.5-3.358-7.5-7.5s3.358-7.5 7.5-7.5h70c4.142 0 7.5 3.358 7.5 7.5s-3.358 7.5-7.5 7.5z"/>
            </g>
            <g>
                <path d="m149.5 404h-80c-4.142 0-7.5-3.358-7.5-7.5s3.358-7.5 7.5-7.5h80c4.142 0 7.5 3.358 7.5 7.5s-3.358 7.5-7.5 7.5z"/>
            </g>
            <g>
                <path d="m149.5 434h-80c-4.142 0-7.5-3.358-7.5-7.5s3.358-7.5 7.5-7.5h80c4.142 0 7.5 3.358 7.5 7.5s-3.358 7.5-7.5 7.5z"/>
            </g>
        </g>
        <g>
            <g>
                <path d="m288.5 374h-70c-4.142 0-7.5-3.358-7.5-7.5s3.358-7.5 7.5-7.5h70c4.143 0 7.5 3.358 7.5 7.5s-3.357 7.5-7.5 7.5z"/>
            </g>
            <g>
                <path d="m288.5 404h-80c-4.142 0-7.5-3.358-7.5-7.5s3.358-7.5 7.5-7.5h80c4.143 0 7.5 3.358 7.5 7.5s-3.357 7.5-7.5 7.5z"/>
            </g>
            <g>
                <path d="m288.5 434h-80c-4.142 0-7.5-3.358-7.5-7.5s3.358-7.5 7.5-7.5h80c4.143 0 7.5 3.358 7.5 7.5s-3.357 7.5-7.5 7.5z"/>
            </g>
        </g>
        <g>
            <g>
                <path d="m427.5 374h-70c-4.143 0-7.5-3.358-7.5-7.5s3.357-7.5 7.5-7.5h70c4.143 0 7.5 3.358 7.5 7.5s-3.357 7.5-7.5 7.5z"/>
            </g>
            <g>
                <path d="m427.5 404h-80c-4.143 0-7.5-3.358-7.5-7.5s3.357-7.5 7.5-7.5h80c4.143 0 7.5 3.358 7.5 7.5s-3.357 7.5-7.5 7.5z"/>
            </g>
            <g>
                <path d="m427.5 434h-80c-4.143 0-7.5-3.358-7.5-7.5s3.357-7.5 7.5-7.5h80c4.143 0 7.5 3.358 7.5 7.5s-3.357 7.5-7.5 7.5z"/>
            </g>
        </g>
    </g>
</symbol><symbol viewBox="0 0 24 24" id="youtube" xmlns="http://www.w3.org/2000/svg">
    <rect x="2" y="3" width="20" height="18" rx="4" stroke-width="1.5"/>
    <path d="M10.4472 8.72361L15.2111 11.1056C15.9482 11.4741 15.9482 12.5259 15.2111 12.8944L10.4472 15.2764C9.78231 15.6088 9 15.1253 9 14.382V9.61803C9 8.87465 9.78231 8.39116 10.4472 8.72361Z" stroke-width="1.5" stroke-linecap="round"/>
</symbol></svg>