<?xml version="1.0" encoding="utf-8"?><svg xmlns="http://www.w3.org/2000/svg" xmlns:xlink="http://www.w3.org/1999/xlink"><symbol viewBox="0 0 18 18" id="arrow-right" xmlns="http://www.w3.org/2000/svg">
    <path d="M3.75 9H14.25" stroke-width="1.125" stroke-linecap="round" stroke-linejoin="round"/>
    <path d="M9.75 13.5L14.25 9" stroke-width="1.125" stroke-linecap="round" stroke-linejoin="round"/>
    <path d="M9.75 4.5L14.25 9" stroke-width="1.125" stroke-linecap="round" stroke-linejoin="round"/>
</symbol><symbol viewBox="0 0 24 24" id="cart" xmlns="http://www.w3.org/2000/svg">
    <path d="M9 6L9 7C9 8.65685 10.3431 10 12 10C13.6569 10 15 8.65685 15 7V6" stroke-width="1.5" stroke-linecap="round" stroke-linejoin="round"/>
    <path d="M15.6116 3H8.3886C6.43325 3 4.76449 4.41365 4.44303 6.3424L2.77636 16.3424C2.37001 18.7805 4.25018 21 6.72194 21H17.2783C19.75 21 21.6302 18.7805 21.2238 16.3424L19.5572 6.3424C19.2357 4.41365 17.5669 3 15.6116 3Z" stroke-width="1.5" stroke-linejoin="round"/>
</symbol><symbol viewBox="0 0 19 18" id="chevron-down" xmlns="http://www.w3.org/2000/svg">
    <path d="M5.20435 6.75L9.70435 11.25L14.2043 6.75" stroke-width="1.125" stroke-linecap="round" stroke-linejoin="round"/>
</symbol><symbol viewBox="0 0 20 20" id="close" xmlns="http://www.w3.org/2000/svg">
    <path fill-rule="evenodd" clip-rule="evenodd" d="M15.4419 5.44194C15.686 5.19786 15.686 4.80214 15.4419 4.55806C15.1979 4.31398 14.8021 4.31398 14.5581 4.55806L10 9.11612L5.44194 4.55806C5.19786 4.31398 4.80214 4.31398 4.55806 4.55806C4.31398 4.80214 4.31398 5.19786 4.55806 5.44194L9.11612 10L4.55806 14.5581C4.31398 14.8021 4.31398 15.1979 4.55806 15.4419C4.80214 15.686 5.19786 15.686 5.44194 15.4419L10 10.8839L14.5581 15.4419C14.8021 15.686 15.1979 15.686 15.4419 15.4419C15.686 15.1979 15.686 14.8021 15.4419 14.5581L10.8839 10L15.4419 5.44194Z"/>
</symbol><symbol viewBox="0 0 24 25" id="heart" xmlns="http://www.w3.org/2000/svg">
    <path fill-rule="evenodd" clip-rule="evenodd" d="M12.6924 7.58373C12.3055 7.95505 11.6945 7.95505 11.3076 7.58373L10.6152 6.91927C9.80477 6.14154 8.70994 5.66667 7.5 5.66667C5.01472 5.66667 3 7.68139 3 10.1667C3 12.5493 4.28979 14.5167 6.15176 16.1332C8.01532 17.7511 10.2434 18.8241 11.5746 19.3717C11.853 19.4862 12.147 19.4862 12.4254 19.3717C13.7566 18.8241 15.9847 17.7511 17.8482 16.1332C19.7102 14.5167 21 12.5493 21 10.1667C21 7.68139 18.9853 5.66667 16.5 5.66667C15.2901 5.66667 14.1952 6.14154 13.3848 6.91927L12.6924 7.58373ZM12 5.47624C10.8321 4.35548 9.24649 3.66667 7.5 3.66667C3.91015 3.66667 1 6.57682 1 10.1667C1 16.5349 7.97034 20.0517 10.8138 21.2214C11.5796 21.5364 12.4204 21.5364 13.1862 21.2214C16.0297 20.0517 23 16.5349 23 10.1667C23 6.57682 20.0899 3.66667 16.5 3.66667C14.7535 3.66667 13.1679 4.35548 12 5.47624Z"/>
</symbol><symbol viewBox="0 0 24 24" id="heart-line" xmlns="http://www.w3.org/2000/svg">
    <path d="M12.001 4.52853C14.35 2.42 17.98 2.49 20.2426 4.75736C22.5053 7.02472 22.583 10.637 20.4786 12.993L11.9999 21.485L3.52138 12.993C1.41705 10.637 1.49571 7.01901 3.75736 4.75736C6.02157 2.49315 9.64519 2.41687 12.001 4.52853ZM18.827 6.1701C17.3279 4.66794 14.9076 4.60701 13.337 6.01687L12.0019 7.21524L10.6661 6.01781C9.09098 4.60597 6.67506 4.66808 5.17157 6.17157C3.68183 7.66131 3.60704 10.0473 4.97993 11.6232L11.9999 18.6543L19.0201 11.6232C20.3935 10.0467 20.319 7.66525 18.827 6.1701Z"/>
</symbol><symbol viewBox="0 0 24 24" id="id-card-line" xmlns="http://www.w3.org/2000/svg">
    <path d="M3 6H21V18H3V6ZM2 4C1.44772 4 1 4.44772 1 5V19C1 19.5523 1.44772 20 2 20H22C22.5523 20 23 19.5523 23 19V5C23 4.44772 22.5523 4 22 4H2ZM13 8H19V10H13V8ZM18 12H13V14H18V12ZM10.5 10C10.5 11.3807 9.38071 12.5 8 12.5C6.61929 12.5 5.5 11.3807 5.5 10C5.5 8.61929 6.61929 7.5 8 7.5C9.38071 7.5 10.5 8.61929 10.5 10ZM8 13.5C6.067 13.5 4.5 15.067 4.5 17H11.5C11.5 15.067 9.933 13.5 8 13.5Z"/>
</symbol><symbol viewBox="0 0 24 24" id="search" xmlns="http://www.w3.org/2000/svg">
    <path d="M18.5 18.5L22 22M21 11.5C21 6.25329 16.7467 2 11.5 2C6.25329 2 2 6.25329 2 11.5C2 16.7467 6.25329 21 11.5 21C16.7467 21 21 16.7467 21 11.5Z" stroke-width="1.5" stroke-linecap="round" stroke-linejoin="round"/>
</symbol><symbol viewBox="0 0 24 24" id="search-line" xmlns="http://www.w3.org/2000/svg">
    <path d="M18.031 16.6168L22.3137 20.8995L20.8995 22.3137L16.6168 18.031C15.0769 19.263 13.124 20 11 20C6.032 20 2 15.968 2 11C2 6.032 6.032 2 11 2C15.968 2 20 6.032 20 11C20 13.124 19.263 15.0769 18.031 16.6168ZM16.0247 15.8748C17.2475 14.6146 18 12.8956 18 11C18 7.1325 14.8675 4 11 4C7.1325 4 4 7.1325 4 11C4 14.8675 7.1325 18 11 18C12.8956 18 14.6146 17.2475 15.8748 16.0247L16.0247 15.8748Z"/>
</symbol><symbol viewBox="0 0 24 24" id="ticket-percent" xmlns="http://www.w3.org/2000/svg">
    <path d="M21.0181 14.8356L20.7727 15.5444H20.7727L21.0181 14.8356ZM21.0181 9.16437L21.2635 9.8731V9.8731L21.0181 9.16437ZM2.98189 14.8356L3.22727 15.5444H3.22727L2.98189 14.8356ZM2.98189 9.16437L2.73652 9.8731L2.73652 9.8731L2.98189 9.16437ZM15.5303 9.53033C15.8232 9.23744 15.8232 8.76256 15.5303 8.46967C15.2374 8.17678 14.7626 8.17678 14.4697 8.46967L15.5303 9.53033ZM8.46967 14.4697C8.17678 14.7626 8.17678 15.2374 8.46967 15.5303C8.76256 15.8232 9.23744 15.8232 9.53033 15.5303L8.46967 14.4697ZM6 20.25C4.20507 20.25 2.75 18.7949 2.75 17H1.25C1.25 19.6234 3.37665 21.75 6 21.75V20.25ZM21.25 17C21.25 18.7949 19.7949 20.25 18 20.25V21.75C20.6234 21.75 22.75 19.6234 22.75 17H21.25ZM18 3.75C19.7949 3.75 21.25 5.20507 21.25 7H22.75C22.75 4.37665 20.6234 2.25 18 2.25V3.75ZM6 2.25C3.37665 2.25 1.25 4.37665 1.25 7H2.75C2.75 5.20507 4.20507 3.75 6 3.75V2.25ZM21.2635 14.1269C20.3815 13.8216 19.75 12.9836 19.75 12H18.25C18.25 13.6424 19.3054 15.0363 20.7727 15.5444L21.2635 14.1269ZM19.75 12C19.75 11.0164 20.3815 10.1784 21.2635 9.8731L20.7727 8.45565C19.3054 8.96367 18.25 10.3576 18.25 12H19.75ZM4.25 12C4.25 12.9836 3.61845 13.8216 2.73652 14.1269L3.22727 15.5444C4.69461 15.0363 5.75 13.6424 5.75 12H4.25ZM2.73652 9.8731C3.61845 10.1784 4.25 11.0164 4.25 12H5.75C5.75 10.3576 4.69462 8.96367 3.22727 8.45565L2.73652 9.8731ZM22.75 8V7H21.25V8H22.75ZM21.25 16V17H22.75V16H21.25ZM1.25 16V17H2.75V16H1.25ZM2.75 8V7H1.25V8H2.75ZM18 20.25H6V21.75H18V20.25ZM18 2.25H6V3.75H18V2.25ZM2.73652 14.1269C2.05785 14.3619 1.25 14.9975 1.25 16H2.75C2.75 15.9441 2.77081 15.8708 2.85172 15.7813C2.9366 15.6873 3.06974 15.5989 3.22727 15.5444L2.73652 14.1269ZM21.2635 9.8731C21.9422 9.63813 22.75 9.00246 22.75 8H21.25C21.25 8.05587 21.2292 8.12917 21.1483 8.21871C21.0634 8.31265 20.9303 8.40111 20.7727 8.45565L21.2635 9.8731ZM3.22727 8.45565C3.06974 8.40111 2.9366 8.31265 2.85172 8.21871C2.77081 8.12917 2.75 8.05587 2.75 8H1.25C1.25 9.00246 2.05785 9.63813 2.73652 9.8731L3.22727 8.45565ZM20.7727 15.5444C20.9303 15.5989 21.0634 15.6873 21.1483 15.7813C21.2292 15.8708 21.25 15.9441 21.25 16H22.75C22.75 14.9975 21.9422 14.3619 21.2635 14.1269L20.7727 15.5444ZM9.25 9C9.25 9.13807 9.13807 9.25 9 9.25V10.75C9.9665 10.75 10.75 9.9665 10.75 9H9.25ZM9 9.25C8.86193 9.25 8.75 9.13807 8.75 9H7.25C7.25 9.9665 8.0335 10.75 9 10.75V9.25ZM8.75 9C8.75 8.86193 8.86193 8.75 9 8.75V7.25C8.0335 7.25 7.25 8.0335 7.25 9H8.75ZM9 8.75C9.13807 8.75 9.25 8.86193 9.25 9H10.75C10.75 8.0335 9.9665 7.25 9 7.25V8.75ZM15.25 15C15.25 15.1381 15.1381 15.25 15 15.25V16.75C15.9665 16.75 16.75 15.9665 16.75 15H15.25ZM15 15.25C14.8619 15.25 14.75 15.1381 14.75 15H13.25C13.25 15.9665 14.0335 16.75 15 16.75V15.25ZM14.75 15C14.75 14.8619 14.8619 14.75 15 14.75V13.25C14.0335 13.25 13.25 14.0335 13.25 15H14.75ZM15 14.75C15.1381 14.75 15.25 14.8619 15.25 15H16.75C16.75 14.0335 15.9665 13.25 15 13.25V14.75ZM14.4697 8.46967L8.46967 14.4697L9.53033 15.5303L15.5303 9.53033L14.4697 8.46967Z"/>
</symbol><symbol viewBox="0 0 22 22" id="user" xmlns="http://www.w3.org/2000/svg">
    <path d="M17.5588 18.5488C16.5654 15.8918 14.0036 14 11 14C7.99638 14 5.4346 15.8918 4.44117 18.5488M17.5588 18.5488C19.6672 16.7154 21 14.0134 21 11C21 5.47715 16.5228 1 11 1C5.47715 1 1 5.47715 1 11C1 14.0134 2.33285 16.7154 4.44117 18.5488M17.5588 18.5488C15.8031 20.0756 13.5095 21 11 21C8.49052 21 6.19694 20.0756 4.44117 18.5488M14 8C14 9.65685 12.6569 11 11 11C9.34315 11 8 9.65685 8 8C8 6.34315 9.34315 5 11 5C12.6569 5 14 6.34315 14 8Z" stroke-width="1.5" stroke-linejoin="round"/>
</symbol><symbol viewBox="0 0 24 24" id="user-star-line" xmlns="http://www.w3.org/2000/svg">
    <path d="M12 14V16C8.68629 16 6 18.6863 6 22H4C4 17.5817 7.58172 14 12 14ZM12 13C8.685 13 6 10.315 6 7C6 3.685 8.685 1 12 1C15.315 1 18 3.685 18 7C18 10.315 15.315 13 12 13ZM12 11C14.21 11 16 9.21 16 7C16 4.79 14.21 3 12 3C9.79 3 8 4.79 8 7C8 9.21 9.79 11 12 11ZM18 21.5L15.0611 23.0451L15.6224 19.7725L13.2447 17.4549L16.5305 16.9775L18 14L19.4695 16.9775L22.7553 17.4549L20.3776 19.7725L20.9389 23.0451L18 21.5Z"/>
</symbol><symbol id="website" enable-background="new 0 0 497 497" viewBox="0 0 497 497" xmlns="http://www.w3.org/2000/svg">
    <g>
        <path d="m497 128.5v312c0 11.046-8.954 20-20 20h-457c-11.046 0-20-8.954-20-20v-312z"/>
        <g>
            <path d="m290.498 294.5c0-23.196-18.804-42-42-42-7.031 0-13.659 1.728-19.482 4.782-13.386 7.021-19.327 21.053-19.327 37.218 0 23.196 15.613 36.457 38.809 36.457 16.214 0 30.282-3.645 37.282-17.099 3.014-5.792 4.718-12.376 4.718-19.358z"/>
            <path d="m286.468 312.47c-6.73 14.21-21.2 24.03-37.97 24.03-23.2 0-42-18.8-42-42 0-16.77 9.82-31.24 24.03-37.97-2.59 5.45-4.03 11.54-4.03 17.97 0 23.2 18.8 42 42 42 6.43 0 12.52-1.44 17.97-4.03z"/>
        </g>
        <g>
            <path d="m429.496 294.5c0-23.196-18.804-42-42-42-7.031 0-13.659 1.728-19.482 4.782-13.386 7.021-19.327 21.053-19.327 37.218 0 23.196 15.613 36.457 38.809 36.457 16.214 0 30.282-3.645 37.282-17.099 3.014-5.792 4.718-12.376 4.718-19.358z"/>
            <path d="m425.466 312.47c-6.73 14.21-21.2 24.03-37.97 24.03-23.2 0-42-18.8-42-42 0-16.77 9.82-31.24 24.03-37.97-2.59 5.45-4.03 11.54-4.03 17.97 0 23.2 18.8 42 42 42 6.43 0 12.52-1.44 17.97-4.03z"/>
        </g>
        <path d="m497 148.5v-20l-276.011-12.798-220.989 12.798v20 292c0 11.046 8.954 20 20 20h15c-8.28 0-15-6.72-15-15v-291c0-3.314 2.686-6 6-6z"/>
        <g>
            <path d="m497 56.5v72.5h-497v-72.5c0-11.046 8.954-20 20-20h457c11.046 0 20 8.954 20 20z"/>
            <g>
                <path d="m227.758 108.5c-8.255 0-14.947-6.716-14.947-15s6.692-15 14.947-15h208.315c8.255 0 14.947 6.716 14.947 15s-6.692 15-14.947 15z"/>
                <ellipse cx="160.869" cy="93.5" rx="14.947" ry="15"/>
                <path d="m171.361 104.184 12.874-12.869-13.139 1.179z"/>
                <path d="m150.592 82.608 12.562-12.516-2.693 10.408z"/>
                <ellipse cx="98.034" cy="93.5" rx="14.947" ry="15"/>
                <path d="m108.553 104.157 12.382-12.499-12.674.836z"/>
                <path d="m87.757 82.608 12.371-12.459-2.502 10.351z"/>
                <ellipse cx="32.947" cy="93.5" rx="14.947" ry="15"/>
                <path d="m43.769 103.846 12.721-13.186-13.139 1.381z"/>
                <path d="m22.67 82.608 11.622-12.038-1.753 9.93z"/>
            </g>
            <ellipse cx="173.849" cy="80.5" rx="14.947" ry="15"/>
            <path d="m217.514 82.577 12.971-12.991-3.025 14.276z"/>
            <path d="m446.83 103.915 13.149-13.179-10.185 3.381z"/>
            <ellipse cx="110.946" cy="80.5" rx="14.947" ry="15"/>
            <ellipse cx="45.495" cy="80.5" rx="14.947" ry="15"/>
            <path d="m240.737 95.5c-8.255 0-14.947-6.716-14.947-15s6.692-15 14.947-15h208.315c8.255 0 14.947 6.716 14.947 15s-6.692 15-14.947 15z"/>
        </g>
        <path d="m135.893 215 226.628 2c5.523 0 10-4.477 10-10l3.479-7v-30c0-5.523-4.477-10-10-10h-224l-6.107 5c-5.523 0-10 4.477-10 10v30c0 5.523 4.477 10 10 10z"/>
        <path d="m376 200v10c0 5.523-4.477 10-10 10h-234c-5.523 0-10-4.477-10-10v-40c0-5.523 4.477-10 10-10h10v33c0 3.866 3.134 7 7 7z"/>
        <g>
            <path d="m151.5 294.5c0-23.196-18.804-42-42-42-7.031 0-13.659 1.728-19.482 4.782-13.386 7.021-19.327 21.053-19.327 37.218 0 23.196 15.613 36.457 38.809 36.457 16.214 0 30.282-3.645 37.282-17.099 3.014-5.792 4.718-12.376 4.718-19.358z"/>
            <path d="m147.47 312.47c-6.73 14.21-21.2 24.03-37.97 24.03-23.2 0-42-18.8-42-42 0-16.77 9.82-31.24 24.03-37.97-2.59 5.45-4.03 11.54-4.03 17.97 0 23.2 18.8 42 42 42 6.43 0 12.52-1.44 17.97-4.03z"/>
        </g>
        <g>
            <g>
                <path d="m149.5 374h-70c-4.142 0-7.5-3.358-7.5-7.5s3.358-7.5 7.5-7.5h70c4.142 0 7.5 3.358 7.5 7.5s-3.358 7.5-7.5 7.5z"/>
            </g>
            <g>
                <path d="m149.5 404h-80c-4.142 0-7.5-3.358-7.5-7.5s3.358-7.5 7.5-7.5h80c4.142 0 7.5 3.358 7.5 7.5s-3.358 7.5-7.5 7.5z"/>
            </g>
            <g>
                <path d="m149.5 434h-80c-4.142 0-7.5-3.358-7.5-7.5s3.358-7.5 7.5-7.5h80c4.142 0 7.5 3.358 7.5 7.5s-3.358 7.5-7.5 7.5z"/>
            </g>
        </g>
        <g>
            <g>
                <path d="m288.5 374h-70c-4.142 0-7.5-3.358-7.5-7.5s3.358-7.5 7.5-7.5h70c4.143 0 7.5 3.358 7.5 7.5s-3.357 7.5-7.5 7.5z"/>
            </g>
            <g>
                <path d="m288.5 404h-80c-4.142 0-7.5-3.358-7.5-7.5s3.358-7.5 7.5-7.5h80c4.143 0 7.5 3.358 7.5 7.5s-3.357 7.5-7.5 7.5z"/>
            </g>
            <g>
                <path d="m288.5 434h-80c-4.142 0-7.5-3.358-7.5-7.5s3.358-7.5 7.5-7.5h80c4.143 0 7.5 3.358 7.5 7.5s-3.357 7.5-7.5 7.5z"/>
            </g>
        </g>
        <g>
            <g>
                <path d="m427.5 374h-70c-4.143 0-7.5-3.358-7.5-7.5s3.357-7.5 7.5-7.5h70c4.143 0 7.5 3.358 7.5 7.5s-3.357 7.5-7.5 7.5z"/>
            </g>
            <g>
                <path d="m427.5 404h-80c-4.143 0-7.5-3.358-7.5-7.5s3.357-7.5 7.5-7.5h80c4.143 0 7.5 3.358 7.5 7.5s-3.357 7.5-7.5 7.5z"/>
            </g>
            <g>
                <path d="m427.5 434h-80c-4.143 0-7.5-3.358-7.5-7.5s3.357-7.5 7.5-7.5h80c4.143 0 7.5 3.358 7.5 7.5s-3.357 7.5-7.5 7.5z"/>
            </g>
        </g>
    </g>
</symbol></svg>